<mxfile host="app.diagrams.net" modified="2023-12-19T08:08:59.154Z" agent="Mozilla/5.0 (Windows NT 10.0; Win64; x64) AppleWebKit/537.36 (KHTML, like Gecko) Chrome/120.0.0.0 Safari/537.36" etag="sEn8ns5NNUUbbUEYzNg1" version="22.1.11" type="google">
  <diagram name="PÃ¡gina-1" id="EDEnXjyYCpgq10zxwGUF">
    <mxGraphModel grid="1" page="1" gridSize="10" guides="1" tooltips="1" connect="1" arrows="1" fold="1" pageScale="1" pageWidth="827" pageHeight="1169" math="0" shadow="0">
      <root>
        <mxCell id="0" />
        <mxCell id="1" parent="0" />
        <mxCell id="1hIpczBpAXgliyqD5WxF-57" style="edgeStyle=orthogonalEdgeStyle;rounded=0;orthogonalLoop=1;jettySize=auto;html=1;exitX=0;exitY=0.5;exitDx=0;exitDy=0;entryX=0.457;entryY=-0.011;entryDx=0;entryDy=0;entryPerimeter=0;" edge="1" parent="1" source="1hIpczBpAXgliyqD5WxF-55" target="HrzDU_YAAH0DgDFT_2nu-1">
          <mxGeometry relative="1" as="geometry">
            <mxPoint x="-130" y="50" as="targetPoint" />
          </mxGeometry>
        </mxCell>
        <mxCell id="1hIpczBpAXgliyqD5WxF-55" value="Contiene" style="rhombus;whiteSpace=wrap;html=1;" vertex="1" parent="1">
          <mxGeometry x="50" y="20" width="130" height="60" as="geometry" />
        </mxCell>
        <mxCell id="1hIpczBpAXgliyqD5WxF-86" value="" style="endArrow=none;html=1;rounded=0;edgeStyle=orthogonalEdgeStyle;entryX=0.5;entryY=1;entryDx=0;entryDy=0;exitX=0.774;exitY=0.967;exitDx=0;exitDy=0;exitPerimeter=0;" edge="1" parent="1" source="IF3F5gfwqArzL3SbniCK-18">
          <mxGeometry width="50" height="50" relative="1" as="geometry">
            <mxPoint x="-170" y="745" as="sourcePoint" />
            <mxPoint x="-130" y="290" as="targetPoint" />
            <Array as="points">
              <mxPoint x="-418" y="770" />
              <mxPoint x="-130" y="770" />
            </Array>
          </mxGeometry>
        </mxCell>
        <mxCell id="1hIpczBpAXgliyqD5WxF-87" value="1.1" style="text;html=1;strokeColor=none;fillColor=none;align=center;verticalAlign=middle;whiteSpace=wrap;rounded=0;" vertex="1" parent="1">
          <mxGeometry x="-390" y="630" width="60" height="30" as="geometry" />
        </mxCell>
        <mxCell id="1hIpczBpAXgliyqD5WxF-88" value="1.1" style="text;html=1;align=center;verticalAlign=middle;resizable=0;points=[];autosize=1;strokeColor=none;fillColor=none;" vertex="1" parent="1">
          <mxGeometry x="-165" y="290" width="40" height="30" as="geometry" />
        </mxCell>
        <mxCell id="1hIpczBpAXgliyqD5WxF-89" value="0.1" style="text;html=1;align=center;verticalAlign=middle;resizable=0;points=[];autosize=1;strokeColor=none;fillColor=none;" vertex="1" parent="1">
          <mxGeometry x="60" y="220" width="40" height="30" as="geometry" />
        </mxCell>
        <mxCell id="1hIpczBpAXgliyqD5WxF-90" value="0.n" style="text;html=1;align=center;verticalAlign=middle;resizable=0;points=[];autosize=1;strokeColor=none;fillColor=none;" vertex="1" parent="1">
          <mxGeometry x="-180" y="50" width="40" height="30" as="geometry" />
        </mxCell>
        <mxCell id="1hIpczBpAXgliyqD5WxF-97" value="" style="endArrow=none;html=1;rounded=0;edgeStyle=orthogonalEdgeStyle;entryX=0;entryY=0.75;entryDx=0;entryDy=0;exitX=1;exitY=0.5;exitDx=0;exitDy=0;" edge="1" parent="1" source="1hIpczBpAXgliyqD5WxF-167">
          <mxGeometry width="50" height="50" relative="1" as="geometry">
            <mxPoint x="-290" y="510" as="sourcePoint" />
            <mxPoint x="-225" y="262.5" as="targetPoint" />
            <Array as="points">
              <mxPoint x="-280" y="515" />
              <mxPoint x="-280" y="263" />
            </Array>
          </mxGeometry>
        </mxCell>
        <mxCell id="1hIpczBpAXgliyqD5WxF-98" value="1.n" style="text;html=1;align=center;verticalAlign=middle;resizable=0;points=[];autosize=1;strokeColor=none;fillColor=none;" vertex="1" parent="1">
          <mxGeometry x="-270" y="230" width="40" height="30" as="geometry" />
        </mxCell>
        <mxCell id="1hIpczBpAXgliyqD5WxF-99" value="1.1" style="text;html=1;align=center;verticalAlign=middle;resizable=0;points=[];autosize=1;strokeColor=none;fillColor=none;" vertex="1" parent="1">
          <mxGeometry x="-340" y="525" width="40" height="30" as="geometry" />
        </mxCell>
        <mxCell id="1hIpczBpAXgliyqD5WxF-100" value="Tiene" style="text;html=1;strokeColor=none;fillColor=none;align=center;verticalAlign=middle;whiteSpace=wrap;rounded=0;" vertex="1" parent="1">
          <mxGeometry x="-340" y="370" width="60" height="30" as="geometry" />
        </mxCell>
        <mxCell id="1hIpczBpAXgliyqD5WxF-111" value="" style="endArrow=none;html=1;rounded=0;edgeStyle=orthogonalEdgeStyle;entryX=0.643;entryY=1.133;entryDx=0;entryDy=0;entryPerimeter=0;exitX=0.349;exitY=1.033;exitDx=0;exitDy=0;exitPerimeter=0;" edge="1" parent="1" source="IF3F5gfwqArzL3SbniCK-18" target="IF3F5gfwqArzL3SbniCK-3">
          <mxGeometry width="50" height="50" relative="1" as="geometry">
            <mxPoint x="-671.0500000000002" y="765.3399999999999" as="sourcePoint" />
            <mxPoint x="-1090.6599999999999" y="399.70000000000005" as="targetPoint" />
            <Array as="points">
              <mxPoint x="-518" y="770" />
              <mxPoint x="-1091" y="770" />
              <mxPoint x="-1091" y="330" />
              <mxPoint x="-1255" y="330" />
            </Array>
          </mxGeometry>
        </mxCell>
        <mxCell id="1hIpczBpAXgliyqD5WxF-112" value="1.1" style="text;html=1;strokeColor=none;fillColor=none;align=center;verticalAlign=middle;whiteSpace=wrap;rounded=0;" vertex="1" parent="1">
          <mxGeometry x="-1240" y="250" width="60" height="30" as="geometry" />
        </mxCell>
        <mxCell id="1hIpczBpAXgliyqD5WxF-113" value="0.n" style="text;html=1;strokeColor=none;fillColor=none;align=center;verticalAlign=middle;whiteSpace=wrap;rounded=0;" vertex="1" parent="1">
          <mxGeometry x="-600" y="620" width="60" height="30" as="geometry" />
        </mxCell>
        <mxCell id="1hIpczBpAXgliyqD5WxF-114" value="Tiene" style="text;html=1;strokeColor=none;fillColor=none;align=center;verticalAlign=middle;whiteSpace=wrap;rounded=0;rotation=-90;" vertex="1" parent="1">
          <mxGeometry x="-1140" y="470" width="60" height="30" as="geometry" />
        </mxCell>
        <mxCell id="1hIpczBpAXgliyqD5WxF-126" value="" style="endArrow=none;html=1;rounded=0;edgeStyle=orthogonalEdgeStyle;exitX=0;exitY=0.335;exitDx=0;exitDy=0;entryX=1;entryY=0.5;entryDx=0;entryDy=0;exitPerimeter=0;" edge="1" parent="1" source="1hIpczBpAXgliyqD5WxF-148" target="1hIpczBpAXgliyqD5WxF-140">
          <mxGeometry width="50" height="50" relative="1" as="geometry">
            <mxPoint x="-1410" y="140" as="sourcePoint" />
            <mxPoint x="-1530" y="130" as="targetPoint" />
            <Array as="points">
              <mxPoint x="-1560" y="120" />
            </Array>
          </mxGeometry>
        </mxCell>
        <mxCell id="1hIpczBpAXgliyqD5WxF-130" value="1.2" style="text;html=1;strokeColor=none;fillColor=none;align=center;verticalAlign=middle;whiteSpace=wrap;rounded=0;" vertex="1" parent="1">
          <mxGeometry x="-1450" y="90" width="60" height="30" as="geometry" />
        </mxCell>
        <mxCell id="1hIpczBpAXgliyqD5WxF-132" value="1.n" style="text;html=1;align=center;verticalAlign=middle;resizable=0;points=[];autosize=1;strokeColor=none;fillColor=none;" vertex="1" parent="1">
          <mxGeometry x="-1560" y="90" width="40" height="30" as="geometry" />
        </mxCell>
        <mxCell id="1hIpczBpAXgliyqD5WxF-136" value="" style="endArrow=none;html=1;rounded=0;edgeStyle=orthogonalEdgeStyle;exitX=0.75;exitY=1;exitDx=0;exitDy=0;entryX=0.257;entryY=1.2;entryDx=0;entryDy=0;entryPerimeter=0;" edge="1" parent="1" target="IF3F5gfwqArzL3SbniCK-3">
          <mxGeometry width="50" height="50" relative="1" as="geometry">
            <mxPoint x="-80" y="290" as="sourcePoint" />
            <mxPoint x="-1430" y="360" as="targetPoint" />
            <Array as="points">
              <mxPoint x="-80" y="830" />
              <mxPoint x="-1490" y="830" />
              <mxPoint x="-1490" y="330" />
              <mxPoint x="-1336" y="330" />
            </Array>
          </mxGeometry>
        </mxCell>
        <mxCell id="1hIpczBpAXgliyqD5WxF-137" value="Door" style="swimlane;fontStyle=0;childLayout=stackLayout;horizontal=1;startSize=30;horizontalStack=0;resizeParent=1;resizeParentMax=0;resizeLast=0;collapsible=1;marginBottom=0;whiteSpace=wrap;html=1;" vertex="1" parent="1">
          <mxGeometry x="-1760" y="60" width="200" height="120" as="geometry" />
        </mxCell>
        <mxCell id="1hIpczBpAXgliyqD5WxF-138" value="-idDoor: Int&amp;nbsp;" style="text;strokeColor=none;fillColor=none;align=left;verticalAlign=middle;spacingLeft=4;spacingRight=4;overflow=hidden;points=[[0,0.5],[1,0.5]];portConstraint=eastwest;rotatable=0;whiteSpace=wrap;html=1;" vertex="1" parent="1hIpczBpAXgliyqD5WxF-137">
          <mxGeometry y="30" width="200" height="30" as="geometry" />
        </mxCell>
        <mxCell id="1hIpczBpAXgliyqD5WxF-139" value="-used:Boolean" style="text;strokeColor=none;fillColor=none;align=left;verticalAlign=middle;spacingLeft=4;spacingRight=4;overflow=hidden;points=[[0,0.5],[1,0.5]];portConstraint=eastwest;rotatable=0;whiteSpace=wrap;html=1;" vertex="1" parent="1hIpczBpAXgliyqD5WxF-137">
          <mxGeometry y="60" width="200" height="30" as="geometry" />
        </mxCell>
        <mxCell id="1hIpczBpAXgliyqD5WxF-140" value="-IdSite: Int references Site" style="text;strokeColor=none;fillColor=none;align=left;verticalAlign=middle;spacingLeft=4;spacingRight=4;overflow=hidden;points=[[0,0.5],[1,0.5]];portConstraint=eastwest;rotatable=0;whiteSpace=wrap;html=1;" vertex="1" parent="1hIpczBpAXgliyqD5WxF-137">
          <mxGeometry y="90" width="200" height="30" as="geometry" />
        </mxCell>
        <mxCell id="1hIpczBpAXgliyqD5WxF-145" value="Site" style="swimlane;fontStyle=0;childLayout=stackLayout;horizontal=1;startSize=30;horizontalStack=0;resizeParent=1;resizeParentMax=0;resizeLast=0;collapsible=1;marginBottom=0;whiteSpace=wrap;html=1;" vertex="1" parent="1">
          <mxGeometry x="-1390" width="210" height="240" as="geometry" />
        </mxCell>
        <mxCell id="1hIpczBpAXgliyqD5WxF-146" value="-idSite: Int" style="text;strokeColor=none;fillColor=none;align=left;verticalAlign=middle;spacingLeft=4;spacingRight=4;overflow=hidden;points=[[0,0.5],[1,0.5]];portConstraint=eastwest;rotatable=0;whiteSpace=wrap;html=1;" vertex="1" parent="1hIpczBpAXgliyqD5WxF-145">
          <mxGeometry y="30" width="210" height="30" as="geometry" />
        </mxCell>
        <mxCell id="1hIpczBpAXgliyqD5WxF-147" value="-description: String" style="text;strokeColor=none;fillColor=none;align=left;verticalAlign=middle;spacingLeft=4;spacingRight=4;overflow=hidden;points=[[0,0.5],[1,0.5]];portConstraint=eastwest;rotatable=0;whiteSpace=wrap;html=1;" vertex="1" parent="1hIpczBpAXgliyqD5WxF-145">
          <mxGeometry y="60" width="210" height="30" as="geometry" />
        </mxCell>
        <mxCell id="1hIpczBpAXgliyqD5WxF-148" value="-visited:Boolean" style="text;strokeColor=none;fillColor=none;align=left;verticalAlign=middle;spacingLeft=4;spacingRight=4;overflow=hidden;points=[[0,0.5],[1,0.5]];portConstraint=eastwest;rotatable=0;whiteSpace=wrap;html=1;" vertex="1" parent="1hIpczBpAXgliyqD5WxF-145">
          <mxGeometry y="90" width="210" height="30" as="geometry" />
        </mxCell>
        <mxCell id="1hIpczBpAXgliyqD5WxF-149" value="-exit: Boolean" style="text;strokeColor=none;fillColor=none;align=left;verticalAlign=middle;spacingLeft=4;spacingRight=4;overflow=hidden;points=[[0,0.5],[1,0.5]];portConstraint=eastwest;rotatable=0;whiteSpace=wrap;html=1;" vertex="1" parent="1hIpczBpAXgliyqD5WxF-145">
          <mxGeometry y="120" width="210" height="30" as="geometry" />
        </mxCell>
        <mxCell id="1hIpczBpAXgliyqD5WxF-150" value="-idElement: Int references Element" style="text;strokeColor=none;fillColor=none;align=left;verticalAlign=middle;spacingLeft=4;spacingRight=4;overflow=hidden;points=[[0,0.5],[1,0.5]];portConstraint=eastwest;rotatable=0;whiteSpace=wrap;html=1;" vertex="1" parent="1hIpczBpAXgliyqD5WxF-145">
          <mxGeometry y="150" width="210" height="30" as="geometry" />
        </mxCell>
        <mxCell id="IF3F5gfwqArzL3SbniCK-1" value="&#xa;&lt;span style=&quot;color: rgb(0, 0, 0); font-family: Helvetica; font-size: 12px; font-style: normal; font-variant-ligatures: normal; font-variant-caps: normal; font-weight: 400; letter-spacing: normal; orphans: 2; text-align: left; text-indent: 0px; text-transform: none; widows: 2; word-spacing: 0px; -webkit-text-stroke-width: 0px; background-color: rgb(251, 251, 251); text-decoration-thickness: initial; text-decoration-style: initial; text-decoration-color: initial; float: none; display: inline !important;&quot;&gt;-idCharacter: Int references Character&lt;/span&gt;&#xa;&#xa;" style="text;strokeColor=none;fillColor=none;align=left;verticalAlign=middle;spacingLeft=4;spacingRight=4;overflow=hidden;points=[[0,0.5],[1,0.5]];portConstraint=eastwest;rotatable=0;whiteSpace=wrap;html=1;" vertex="1" parent="1hIpczBpAXgliyqD5WxF-145">
          <mxGeometry y="180" width="210" height="30" as="geometry" />
        </mxCell>
        <mxCell id="IF3F5gfwqArzL3SbniCK-3" value="-confort: Int" style="text;strokeColor=none;fillColor=none;align=left;verticalAlign=middle;spacingLeft=4;spacingRight=4;overflow=hidden;points=[[0,0.5],[1,0.5]];portConstraint=eastwest;rotatable=0;whiteSpace=wrap;html=1;" vertex="1" parent="1hIpczBpAXgliyqD5WxF-145">
          <mxGeometry y="210" width="210" height="30" as="geometry" />
        </mxCell>
        <mxCell id="1hIpczBpAXgliyqD5WxF-164" value="Character" style="swimlane;fontStyle=0;childLayout=stackLayout;horizontal=1;startSize=30;horizontalStack=0;resizeParent=1;resizeParentMax=0;resizeLast=0;collapsible=1;marginBottom=0;whiteSpace=wrap;html=1;" vertex="1" parent="1">
          <mxGeometry x="-600" y="350" width="235" height="270" as="geometry" />
        </mxCell>
        <mxCell id="1hIpczBpAXgliyqD5WxF-188" value="-idCharacter: Int&amp;nbsp;" style="text;strokeColor=none;fillColor=none;align=left;verticalAlign=middle;spacingLeft=4;spacingRight=4;overflow=hidden;points=[[0,0.5],[1,0.5]];portConstraint=eastwest;rotatable=0;whiteSpace=wrap;html=1;" vertex="1" parent="1hIpczBpAXgliyqD5WxF-164">
          <mxGeometry y="30" width="235" height="30" as="geometry" />
        </mxCell>
        <mxCell id="1hIpczBpAXgliyqD5WxF-165" value="-name:String" style="text;strokeColor=none;fillColor=none;align=left;verticalAlign=middle;spacingLeft=4;spacingRight=4;overflow=hidden;points=[[0,0.5],[1,0.5]];portConstraint=eastwest;rotatable=0;whiteSpace=wrap;html=1;" vertex="1" parent="1hIpczBpAXgliyqD5WxF-164">
          <mxGeometry y="60" width="235" height="30" as="geometry" />
        </mxCell>
        <mxCell id="IF3F5gfwqArzL3SbniCK-24" value="-tipo:String" style="text;strokeColor=none;fillColor=none;align=left;verticalAlign=middle;spacingLeft=4;spacingRight=4;overflow=hidden;points=[[0,0.5],[1,0.5]];portConstraint=eastwest;rotatable=0;whiteSpace=wrap;html=1;" vertex="1" parent="1hIpczBpAXgliyqD5WxF-164">
          <mxGeometry y="90" width="235" height="30" as="geometry" />
        </mxCell>
        <mxCell id="1hIpczBpAXgliyqD5WxF-166" value="-domain:String" style="text;strokeColor=none;fillColor=none;align=left;verticalAlign=middle;spacingLeft=4;spacingRight=4;overflow=hidden;points=[[0,0.5],[1,0.5]];portConstraint=eastwest;rotatable=0;whiteSpace=wrap;html=1;" vertex="1" parent="1hIpczBpAXgliyqD5WxF-164">
          <mxGeometry y="120" width="235" height="30" as="geometry" />
        </mxCell>
        <mxCell id="1hIpczBpAXgliyqD5WxF-167" value="-life:Int" style="text;strokeColor=none;fillColor=none;align=left;verticalAlign=middle;spacingLeft=4;spacingRight=4;overflow=hidden;points=[[0,0.5],[1,0.5]];portConstraint=eastwest;rotatable=0;whiteSpace=wrap;html=1;" vertex="1" parent="1hIpczBpAXgliyqD5WxF-164">
          <mxGeometry y="150" width="235" height="30" as="geometry" />
        </mxCell>
        <mxCell id="IF3F5gfwqArzL3SbniCK-16" value="-viewed: Boolean" style="text;strokeColor=none;fillColor=none;align=left;verticalAlign=middle;spacingLeft=4;spacingRight=4;overflow=hidden;points=[[0,0.5],[1,0.5]];portConstraint=eastwest;rotatable=0;whiteSpace=wrap;html=1;" vertex="1" parent="1hIpczBpAXgliyqD5WxF-164">
          <mxGeometry y="180" width="235" height="30" as="geometry" />
        </mxCell>
        <mxCell id="IF3F5gfwqArzL3SbniCK-17" value="energy: Int" style="text;strokeColor=none;fillColor=none;align=left;verticalAlign=middle;spacingLeft=4;spacingRight=4;overflow=hidden;points=[[0,0.5],[1,0.5]];portConstraint=eastwest;rotatable=0;whiteSpace=wrap;html=1;" vertex="1" parent="1hIpczBpAXgliyqD5WxF-164">
          <mxGeometry y="210" width="235" height="30" as="geometry" />
        </mxCell>
        <mxCell id="IF3F5gfwqArzL3SbniCK-18" value="-idSite: int references Site" style="text;strokeColor=none;fillColor=none;align=left;verticalAlign=middle;spacingLeft=4;spacingRight=4;overflow=hidden;points=[[0,0.5],[1,0.5]];portConstraint=eastwest;rotatable=0;whiteSpace=wrap;html=1;" vertex="1" parent="1hIpczBpAXgliyqD5WxF-164">
          <mxGeometry y="240" width="235" height="30" as="geometry" />
        </mxCell>
        <mxCell id="HrzDU_YAAH0DgDFT_2nu-10" style="edgeStyle=orthogonalEdgeStyle;rounded=0;orthogonalLoop=1;jettySize=auto;html=1;entryX=0.5;entryY=1;entryDx=0;entryDy=0;" edge="1" parent="1" source="HrzDU_YAAH0DgDFT_2nu-1" target="1hIpczBpAXgliyqD5WxF-55">
          <mxGeometry relative="1" as="geometry" />
        </mxCell>
        <mxCell id="HrzDU_YAAH0DgDFT_2nu-1" value="Element" style="swimlane;fontStyle=0;childLayout=stackLayout;horizontal=1;startSize=30;horizontalStack=0;resizeParent=1;resizeParentMax=0;resizeLast=0;collapsible=1;marginBottom=0;whiteSpace=wrap;html=1;" vertex="1" parent="1">
          <mxGeometry x="-230" y="110" width="243" height="180" as="geometry" />
        </mxCell>
        <mxCell id="HrzDU_YAAH0DgDFT_2nu-2" value="Tipo: String" style="text;strokeColor=none;fillColor=none;align=left;verticalAlign=middle;spacingLeft=4;spacingRight=4;overflow=hidden;points=[[0,0.5],[1,0.5]];portConstraint=eastwest;rotatable=0;whiteSpace=wrap;html=1;" vertex="1" parent="HrzDU_YAAH0DgDFT_2nu-1">
          <mxGeometry y="30" width="243" height="30" as="geometry" />
        </mxCell>
        <mxCell id="HrzDU_YAAH0DgDFT_2nu-3" value="Domain: String" style="text;strokeColor=none;fillColor=none;align=left;verticalAlign=middle;spacingLeft=4;spacingRight=4;overflow=hidden;points=[[0,0.5],[1,0.5]];portConstraint=eastwest;rotatable=0;whiteSpace=wrap;html=1;" vertex="1" parent="HrzDU_YAAH0DgDFT_2nu-1">
          <mxGeometry y="60" width="243" height="30" as="geometry" />
        </mxCell>
        <mxCell id="HrzDU_YAAH0DgDFT_2nu-4" value="Contenedor: Boolean" style="text;strokeColor=none;fillColor=none;align=left;verticalAlign=middle;spacingLeft=4;spacingRight=4;overflow=hidden;points=[[0,0.5],[1,0.5]];portConstraint=eastwest;rotatable=0;whiteSpace=wrap;html=1;" vertex="1" parent="HrzDU_YAAH0DgDFT_2nu-1">
          <mxGeometry y="90" width="243" height="30" as="geometry" />
        </mxCell>
        <mxCell id="HrzDU_YAAH0DgDFT_2nu-5" value="valor:int" style="text;strokeColor=none;fillColor=none;align=left;verticalAlign=middle;spacingLeft=4;spacingRight=4;overflow=hidden;points=[[0,0.5],[1,0.5]];portConstraint=eastwest;rotatable=0;whiteSpace=wrap;html=1;" vertex="1" parent="HrzDU_YAAH0DgDFT_2nu-1">
          <mxGeometry y="120" width="243" height="30" as="geometry" />
        </mxCell>
        <mxCell id="HrzDU_YAAH0DgDFT_2nu-6" value="-idCharacter: int references Character" style="text;strokeColor=none;fillColor=none;align=left;verticalAlign=middle;spacingLeft=4;spacingRight=4;overflow=hidden;points=[[0,0.5],[1,0.5]];portConstraint=eastwest;rotatable=0;whiteSpace=wrap;html=1;" vertex="1" parent="HrzDU_YAAH0DgDFT_2nu-1">
          <mxGeometry y="150" width="243" height="30" as="geometry" />
        </mxCell>
        <mxCell id="IF3F5gfwqArzL3SbniCK-5" value="1.1" style="text;html=1;strokeColor=none;fillColor=none;align=center;verticalAlign=middle;whiteSpace=wrap;rounded=0;" vertex="1" parent="1">
          <mxGeometry x="-1430" y="280" width="60" height="30" as="geometry" />
        </mxCell>
        <mxCell id="IF3F5gfwqArzL3SbniCK-6" value="Dungeon" style="swimlane;fontStyle=0;childLayout=stackLayout;horizontal=1;startSize=30;horizontalStack=0;resizeParent=1;resizeParentMax=0;resizeLast=0;collapsible=1;marginBottom=0;whiteSpace=wrap;html=1;" vertex="1" parent="1">
          <mxGeometry x="-930" y="90" width="180" height="90" as="geometry" />
        </mxCell>
        <mxCell id="IF3F5gfwqArzL3SbniCK-7" value="-IdDungeon: int" style="text;strokeColor=none;fillColor=none;align=left;verticalAlign=middle;spacingLeft=4;spacingRight=4;overflow=hidden;points=[[0,0.5],[1,0.5]];portConstraint=eastwest;rotatable=0;whiteSpace=wrap;html=1;" vertex="1" parent="IF3F5gfwqArzL3SbniCK-6">
          <mxGeometry y="30" width="180" height="30" as="geometry" />
        </mxCell>
        <mxCell id="IF3F5gfwqArzL3SbniCK-8" value="-IdSite: int reference Site" style="text;strokeColor=none;fillColor=none;align=left;verticalAlign=middle;spacingLeft=4;spacingRight=4;overflow=hidden;points=[[0,0.5],[1,0.5]];portConstraint=eastwest;rotatable=0;whiteSpace=wrap;html=1;" vertex="1" parent="IF3F5gfwqArzL3SbniCK-6">
          <mxGeometry y="60" width="180" height="30" as="geometry" />
        </mxCell>
        <mxCell id="IF3F5gfwqArzL3SbniCK-10" value="" style="endArrow=none;html=1;rounded=0;entryX=0;entryY=0.5;entryDx=0;entryDy=0;exitX=1;exitY=0.5;exitDx=0;exitDy=0;" edge="1" parent="1" source="1hIpczBpAXgliyqD5WxF-149" target="IF3F5gfwqArzL3SbniCK-7">
          <mxGeometry width="50" height="50" relative="1" as="geometry">
            <mxPoint x="-1120" y="180" as="sourcePoint" />
            <mxPoint x="-1070" y="130" as="targetPoint" />
          </mxGeometry>
        </mxCell>
        <mxCell id="IF3F5gfwqArzL3SbniCK-11" value="1.1" style="text;html=1;strokeColor=none;fillColor=none;align=center;verticalAlign=middle;whiteSpace=wrap;rounded=0;" vertex="1" parent="1">
          <mxGeometry x="-1000" y="100" width="60" height="30" as="geometry" />
        </mxCell>
        <mxCell id="IF3F5gfwqArzL3SbniCK-12" value="tiene" style="text;html=1;strokeColor=none;fillColor=none;align=center;verticalAlign=middle;whiteSpace=wrap;rounded=0;" vertex="1" parent="1">
          <mxGeometry x="-1100" y="105" width="60" height="30" as="geometry" />
        </mxCell>
        <mxCell id="IF3F5gfwqArzL3SbniCK-13" value="n.n" style="text;html=1;strokeColor=none;fillColor=none;align=center;verticalAlign=middle;whiteSpace=wrap;rounded=0;" vertex="1" parent="1">
          <mxGeometry x="-1180" y="100" width="60" height="30" as="geometry" />
        </mxCell>
        <mxCell id="IF3F5gfwqArzL3SbniCK-14" value="tiene" style="text;html=1;strokeColor=none;fillColor=none;align=center;verticalAlign=middle;whiteSpace=wrap;rounded=0;" vertex="1" parent="1">
          <mxGeometry x="-1270" y="1000" width="60" height="30" as="geometry" />
        </mxCell>
        <mxCell id="IF3F5gfwqArzL3SbniCK-15" value="1.1" style="text;html=1;strokeColor=none;fillColor=none;align=center;verticalAlign=middle;whiteSpace=wrap;rounded=0;" vertex="1" parent="1">
          <mxGeometry x="-50" y="310" width="60" height="30" as="geometry" />
        </mxCell>
        <mxCell id="IF3F5gfwqArzL3SbniCK-19" value="Condition" style="swimlane;fontStyle=0;childLayout=stackLayout;horizontal=1;startSize=30;horizontalStack=0;resizeParent=1;resizeParentMax=0;resizeLast=0;collapsible=1;marginBottom=0;whiteSpace=wrap;html=1;" vertex="1" parent="1">
          <mxGeometry x="-600" y="45" width="230" height="180" as="geometry" />
        </mxCell>
        <mxCell id="IF3F5gfwqArzL3SbniCK-20" value="-idCondition: int" style="text;strokeColor=none;fillColor=none;align=left;verticalAlign=middle;spacingLeft=4;spacingRight=4;overflow=hidden;points=[[0,0.5],[1,0.5]];portConstraint=eastwest;rotatable=0;whiteSpace=wrap;html=1;" vertex="1" parent="IF3F5gfwqArzL3SbniCK-19">
          <mxGeometry y="30" width="230" height="30" as="geometry" />
        </mxCell>
        <mxCell id="IF3F5gfwqArzL3SbniCK-22" value="-tipo: String" style="text;strokeColor=none;fillColor=none;align=left;verticalAlign=middle;spacingLeft=4;spacingRight=4;overflow=hidden;points=[[0,0.5],[1,0.5]];portConstraint=eastwest;rotatable=0;whiteSpace=wrap;html=1;" vertex="1" parent="IF3F5gfwqArzL3SbniCK-19">
          <mxGeometry y="60" width="230" height="30" as="geometry" />
        </mxCell>
        <mxCell id="IF3F5gfwqArzL3SbniCK-21" value="-idDungeon: int refence Dungeon" style="text;strokeColor=none;fillColor=none;align=left;verticalAlign=middle;spacingLeft=4;spacingRight=4;overflow=hidden;points=[[0,0.5],[1,0.5]];portConstraint=eastwest;rotatable=0;whiteSpace=wrap;html=1;" vertex="1" parent="IF3F5gfwqArzL3SbniCK-19">
          <mxGeometry y="90" width="230" height="30" as="geometry" />
        </mxCell>
        <mxCell id="IF3F5gfwqArzL3SbniCK-23" value="-idCharacter:int reference Character" style="text;strokeColor=none;fillColor=none;align=left;verticalAlign=middle;spacingLeft=4;spacingRight=4;overflow=hidden;points=[[0,0.5],[1,0.5]];portConstraint=eastwest;rotatable=0;whiteSpace=wrap;html=1;" vertex="1" parent="IF3F5gfwqArzL3SbniCK-19">
          <mxGeometry y="120" width="230" height="30" as="geometry" />
        </mxCell>
        <mxCell id="IF3F5gfwqArzL3SbniCK-25" value="-idElement:int reference Element" style="text;strokeColor=none;fillColor=none;align=left;verticalAlign=middle;spacingLeft=4;spacingRight=4;overflow=hidden;points=[[0,0.5],[1,0.5]];portConstraint=eastwest;rotatable=0;whiteSpace=wrap;html=1;" vertex="1" parent="IF3F5gfwqArzL3SbniCK-19">
          <mxGeometry y="150" width="230" height="30" as="geometry" />
        </mxCell>
        <mxCell id="IF3F5gfwqArzL3SbniCK-26" value="" style="endArrow=none;html=1;rounded=0;" edge="1" parent="1" source="IF3F5gfwqArzL3SbniCK-6" target="IF3F5gfwqArzL3SbniCK-19">
          <mxGeometry width="50" height="50" relative="1" as="geometry">
            <mxPoint x="-810" y="290" as="sourcePoint" />
            <mxPoint x="-760" y="240" as="targetPoint" />
          </mxGeometry>
        </mxCell>
        <mxCell id="IF3F5gfwqArzL3SbniCK-27" value="" style="endArrow=none;html=1;rounded=0;" edge="1" parent="1" source="1hIpczBpAXgliyqD5WxF-164" target="IF3F5gfwqArzL3SbniCK-19">
          <mxGeometry width="50" height="50" relative="1" as="geometry">
            <mxPoint x="-610" y="310" as="sourcePoint" />
            <mxPoint x="-560" y="260" as="targetPoint" />
          </mxGeometry>
        </mxCell>
        <mxCell id="IF3F5gfwqArzL3SbniCK-28" value="" style="endArrow=none;html=1;rounded=0;entryX=0;entryY=0.5;entryDx=0;entryDy=0;exitX=1.004;exitY=0.733;exitDx=0;exitDy=0;exitPerimeter=0;" edge="1" parent="1" source="IF3F5gfwqArzL3SbniCK-23" target="HrzDU_YAAH0DgDFT_2nu-3">
          <mxGeometry width="50" height="50" relative="1" as="geometry">
            <mxPoint x="-330" y="190" as="sourcePoint" />
            <mxPoint x="-280" y="140" as="targetPoint" />
          </mxGeometry>
        </mxCell>
        <mxCell id="IF3F5gfwqArzL3SbniCK-30" value="1.1" style="text;html=1;strokeColor=none;fillColor=none;align=center;verticalAlign=middle;whiteSpace=wrap;rounded=0;" vertex="1" parent="1">
          <mxGeometry x="-750" y="150" width="60" height="30" as="geometry" />
        </mxCell>
        <mxCell id="IF3F5gfwqArzL3SbniCK-31" value="1.n" style="text;html=1;strokeColor=none;fillColor=none;align=center;verticalAlign=middle;whiteSpace=wrap;rounded=0;" vertex="1" parent="1">
          <mxGeometry x="-660" y="105" width="60" height="30" as="geometry" />
        </mxCell>
        <mxCell id="IF3F5gfwqArzL3SbniCK-32" value="tiene" style="text;html=1;strokeColor=none;fillColor=none;align=center;verticalAlign=middle;whiteSpace=wrap;rounded=0;" vertex="1" parent="1">
          <mxGeometry x="-710" y="135" width="60" height="30" as="geometry" />
        </mxCell>
        <mxCell id="IF3F5gfwqArzL3SbniCK-33" value="1.n" style="text;html=1;strokeColor=none;fillColor=none;align=center;verticalAlign=middle;whiteSpace=wrap;rounded=0;" vertex="1" parent="1">
          <mxGeometry x="-370" y="195" width="60" height="30" as="geometry" />
        </mxCell>
        <mxCell id="IF3F5gfwqArzL3SbniCK-34" value="1.1" style="text;html=1;strokeColor=none;fillColor=none;align=center;verticalAlign=middle;whiteSpace=wrap;rounded=0;" vertex="1" parent="1">
          <mxGeometry x="-290" y="150" width="60" height="30" as="geometry" />
        </mxCell>
        <mxCell id="IF3F5gfwqArzL3SbniCK-35" value="1.n" style="text;html=1;strokeColor=none;fillColor=none;align=center;verticalAlign=middle;whiteSpace=wrap;rounded=0;" vertex="1" parent="1">
          <mxGeometry x="-540" y="230" width="60" height="30" as="geometry" />
        </mxCell>
        <mxCell id="IF3F5gfwqArzL3SbniCK-36" value="1.1" style="text;html=1;strokeColor=none;fillColor=none;align=center;verticalAlign=middle;whiteSpace=wrap;rounded=0;" vertex="1" parent="1">
          <mxGeometry x="-540" y="320" width="60" height="30" as="geometry" />
        </mxCell>
        <mxCell id="IF3F5gfwqArzL3SbniCK-37" value="tiene" style="text;html=1;strokeColor=none;fillColor=none;align=center;verticalAlign=middle;whiteSpace=wrap;rounded=0;" vertex="1" parent="1">
          <mxGeometry x="-550" y="270" width="60" height="30" as="geometry" />
        </mxCell>
        <mxCell id="IF3F5gfwqArzL3SbniCK-38" value="tiene" style="text;html=1;strokeColor=none;fillColor=none;align=center;verticalAlign=middle;whiteSpace=wrap;rounded=0;" vertex="1" parent="1">
          <mxGeometry x="-330" y="150" width="60" height="30" as="geometry" />
        </mxCell>
        <mxCell id="IF3F5gfwqArzL3SbniCK-39" value="tiene" style="text;html=1;strokeColor=none;fillColor=none;align=center;verticalAlign=middle;whiteSpace=wrap;rounded=0;" vertex="1" parent="1">
          <mxGeometry x="-810" y="840" width="60" height="30" as="geometry" />
        </mxCell>
      </root>
    </mxGraphModel>
  </diagram>
</mxfile>
